<?xml version="1.0" encoding="utf-8"?>
<!-- Generator: Adobe Illustrator 22.0.1, SVG Export Plug-In . SVG Version: 6.00 Build 0)  -->
<svg version="1.1" id="Layer_1" xmlns="http://www.w3.org/2000/svg" xmlns:xlink="http://www.w3.org/1999/xlink" x="0px" y="0px"
	 viewBox="0 0 18 18" style="enable-background:new 0 0 18 18;" xml:space="preserve">
<path d="M9,0C4,0,0,4,0,9c0,0,0,0,0,0c0,5,4,9,9,9c5,0,9-4,9-9C18,4,14,0,9,0z M13.5,12.2l-1.3,1.3L9,10.3l-3.2,3.2l-1.3-1.3L7.7,9
	L4.5,5.8l1.3-1.3L9,7.7l3.2-3.2l1.3,1.3L10.3,9L13.5,12.2z"/>
</svg>
