<?xml version="1.0" encoding="utf-8"?>
<!-- Generator: Adobe Illustrator 22.0.1, SVG Export Plug-In . SVG Version: 6.00 Build 0)  -->
<svg version="1.1" id="Layer_1" xmlns="http://www.w3.org/2000/svg" xmlns:xlink="http://www.w3.org/1999/xlink" x="0px" y="0px"
	 viewBox="0 0 18 18" style="enable-background:new 0 0 18 18;" xml:space="preserve">
<g>
	<path d="M13,0L13,0H5C2.2,0,0,2.2,0,5V13c0,2.7,2.2,5,5,5H13c2.7,0,5-2.2,5-5V5C18,2.2,15.8,0,13,0z M16.4,13L16.4,13
		c0,1.9-1.5,3.4-3.4,3.4H5c-1.9,0-3.4-1.5-3.4-3.4V5c0-1.9,1.5-3.4,3.4-3.4H13c1.9,0,3.4,1.5,3.4,3.4V13z"/>
	<path d="M13.8,3c-0.6,0-1.2,0.5-1.2,1.2c0,0.3,0.1,0.6,0.3,0.8c0.2,0.2,0.5,0.3,0.8,0.3c0.3,0,0.6-0.1,0.8-0.3
		c0.5-0.5,0.5-1.2,0-1.7C14.4,3.1,14.1,3,13.8,3z"/>
	<path d="M9,4.4C6.4,4.4,4.4,6.4,4.4,9s2.1,4.6,4.6,4.6c2.6,0,4.6-2.1,4.6-4.6S11.6,4.4,9,4.4z M9,12c-1.7,0-3-1.4-3-3
		c0-1.7,1.4-3,3-3c1.7,0,3,1.4,3,3C12,10.7,10.7,12,9,12z"/>
</g>
</svg>
