<svg xmlns="http://www.w3.org/2000/svg" width="18" height="18" viewBox="0 0 18 18">
    <g fill="none" fill-rule="evenodd">
        <path d="M0 0h18v18H0z"/>
        <g fill="#9B9B9B">
            <path d="M12.52 1H5.392A4.396 4.396 0 0 0 1 5.391v7.13a4.396 4.396 0 0 0 4.391 4.39h7.13a4.396 4.396 0 0 0 4.39-4.39V5.39A4.396 4.396 0 0 0 12.522 1zm2.98 11.52a2.983 2.983 0 0 1-2.98 2.98H5.392a2.983 2.983 0 0 1-2.98-2.98V5.392a2.983 2.983 0 0 1 2.98-2.98h7.13a2.983 2.983 0 0 1 2.979 2.98v7.13z"/>
            <path d="M8.956 4.856c-2.26 0-4.1 1.84-4.1 4.1s1.84 4.1 4.1 4.1 4.1-1.84 4.1-4.1-1.84-4.1-4.1-4.1zm0 6.788a2.691 2.691 0 0 1-2.688-2.688 2.691 2.691 0 0 1 2.688-2.688 2.691 2.691 0 0 1 2.688 2.688 2.691 2.691 0 0 1-2.688 2.688zM13.228 3.659a1.04 1.04 0 0 0-1.035 1.035c0 .272.11.54.304.732.192.192.459.304.73.304.274 0 .54-.112.733-.304a1.04 1.04 0 0 0 0-1.464 1.04 1.04 0 0 0-.732-.303z"/>
        </g>
    </g>
</svg>
