<?xml version="1.0" encoding="utf-8"?>
<!-- Generator: Adobe Illustrator 22.0.1, SVG Export Plug-In . SVG Version: 6.00 Build 0)  -->
<svg version="1.1" id="Layer_1" xmlns="http://www.w3.org/2000/svg" xmlns:xlink="http://www.w3.org/1999/xlink" x="0px" y="0px"
	 viewBox="0 0 15 17" style="enable-background:new 0 0 15 17;" xml:space="preserve">
<g>
	<polygon points="4.3,16.5 4.3,16.5 3.7,15.9 	"/>
	<path d="M14,2.8c-0.6-0.6-1.5-1-2.4-1c-0.9,0-1.8,0.4-2.4,1.1C9,3.1,9,3.4,9.2,3.6c0.2,0.2,0.5,0.2,0.7,0c0.5-0.5,1.1-0.8,1.8-0.8
		c0.7,0,1.2,0.2,1.7,0.7c0.4,0.4,0.7,1,0.7,1.7c0,0.7-0.3,1.3-0.8,1.8c-0.4,0.4-0.9,0.6-1.4,0.7l0.2-1.8c0,0,0,0,0,0l-0.2,1.8h0
		l0.2-1.8c0-0.3,0-0.5-0.2-0.7c-0.2-0.2-0.4-0.4-0.7-0.4c-0.1,0-0.2,0-0.3,0L7.7,5.2L6,5.4l0,0l-5.7,5.7c0,0,0,0,0,0
		c-0.4,0.4-0.4,1,0,1.4c0,0,0,0,0,0l2,2l2,2c0.2,0.2,0.5,0.3,0.7,0.3c0.3,0,0.5-0.1,0.7-0.3c0,0,0,0,0,0l5.7-5.7l0.1-0.9l0.2-1.2
		c0.8-0.1,1.6-0.4,2.2-1C14.6,7,15,6.1,15,5.2C15,4.3,14.7,3.4,14,2.8z M5,15.8l-4-4v0l5.5-5.5l4.6-0.6l-0.3,1.9
		c-0.1,0-0.3-0.1-0.4-0.2c0-0.3-0.1-0.6-0.3-0.8c-0.4-0.4-1-0.4-1.4,0C8.6,6.8,8.5,7,8.5,7.1L6.9,7.3l-4.5,4.5L5,14.4l4.5-4.5
		l0.2-1.5c0,0,0.1,0,0.1,0c0.3,0.1,0.6,0.3,0.9,0.3l-0.2,1.7L5,15.8z"/>
	<path d="M4.7,3.2l2.9,0.9c0.1,0,0.1,0,0.2,0c0.1,0,0.1,0,0.2,0C8.1,4.1,8.1,4,8.2,4c0,0,0.1-0.1,0.1-0.2c0-0.1,0-0.1,0-0.2
		c0-0.1,0-0.1,0-0.2L7.4,0.5C7.3,0.3,7,0.1,6.7,0.2C6.5,0.3,6.3,0.6,6.4,0.8l0.6,2L5,2.2C4.8,2.1,4.5,2.3,4.4,2.6
		C4.3,2.8,4.5,3.1,4.7,3.2z"/>
</g>
</svg>
